<svg xmlns="http://www.w3.org/2000/svg" viewBox="0 0 96 96" fill="none" role="img" aria-labelledby="title desc">
  <title id="title">NLP Sentiment Analyzer</title>
  <desc id="desc">Natural language sentiment analysis icon</desc>
  <defs>
    <linearGradient id="nlp-grad" x1="12" y1="20" x2="84" y2="76" gradientUnits="userSpaceOnUse">
      <stop stop-color="#34d399"/>
      <stop offset="1" stop-color="#5b8cff"/>
    </linearGradient>
    <linearGradient id="nlp-bubble" x1="16" y1="18" x2="80" y2="60" gradientUnits="userSpaceOnUse">
      <stop stop-color="#5b8cff"/>
      <stop offset="1" stop-color="#8b5cf6"/>
    </linearGradient>
  </defs>
  <path d="M20 20h56c4.4 0 8 3.6 8 8v28c0 4.4-3.6 8-8 8H40l-14 12V72h-6c-4.4 0-8-3.6-8-8V28c0-4.4 3.6-8 8-8Z" fill="url(#nlp-bubble)" opacity=".95"/>
  <circle cx="48" cy="42" r="15" fill="#111a2e" stroke="url(#nlp-grad)" stroke-width="2.5"/>
  <circle cx="42" cy="38" r="2.6" fill="#34d399"/>
  <circle cx="54" cy="38" r="2.6" fill="#34d399"/>
  <path d="M40 47c2.4 3.2 5 4.8 8 4.8s5.6-1.6 8-4.8" stroke="#34d399" stroke-width="2.6" stroke-linecap="round" fill="none"/>
  <path d="M30 84h36" stroke="url(#nlp-grad)" stroke-width="3" stroke-linecap="round"/>
  <circle cx="30" cy="84" r="4" fill="#34d399"/>
  <circle cx="48" cy="84" r="4" fill="#5b8cff"/>
  <circle cx="66" cy="84" r="4" fill="#8b5cf6"/>
</svg>
